<svg width="50" height="50" viewBox="0 0 50 50" fill="none" xmlns="http://www.w3.org/2000/svg">
<g id="24-hours (1) 1" clip-path="url(#clip0_1629_1095)">
<g id="031---24-Hour-Protection">
<path id="Shape" d="M2.70417 22.2275C1.65414 26.2621 1.97664 30.5314 3.62083 34.3625C7.20834 42.0472 14.8822 46.9962 23.3625 47.0942C31.5125 47.0942 39.1433 42.45 44.3058 35.8333C47.3892 37.4908 47.5625 37.6667 48.1392 37.6667C48.6171 37.6663 49.072 37.4608 49.3881 37.1023C49.7042 36.7437 49.8512 36.2668 49.7917 35.7925L47.6317 18.5C47.5665 17.9789 47.2596 17.519 46.8033 17.2589C46.3471 16.9988 45.7949 16.9689 45.3133 17.1783L42.39 18.4492C39.2108 12.2917 34.9733 7.6775 28.2658 5.94167C27.9418 3.96062 26.2324 2.50465 24.225 2.5H4.16667C1.86662 2.50276 0.0027551 4.36662 0 6.66667V18.3333C0.00689973 20.0665 1.08262 21.6156 2.70417 22.2275ZM45.9775 18.7083L48.14 36C44.4483 34.015 44.4508 33.9908 44.2175 33.9525C44.0076 33.92 43.7931 33.9676 43.6167 34.0858C43.5833 34.1092 43.4217 34.2583 43.4158 34.2667C38.5233 40.8167 31.71 44.8658 24.7225 45.3775C16.7392 45.9742 8.50833 41.0442 5.13917 33.6692C3.63414 30.1392 3.35656 26.2064 4.35083 22.5H11.2392C9.75 29.8608 15.8408 36.5675 22.87 36.5675C26.5758 36.5675 31.2283 34.2192 34.3333 29.6075C34.3417 29.595 34.3417 29.5808 34.3492 29.5683C34.3567 29.5558 34.3683 29.5492 34.375 29.5367C34.3906 29.4987 34.4026 29.4594 34.4108 29.4192C34.4332 29.3676 34.4497 29.3136 34.46 29.2583C34.466 29.1531 34.4607 29.0475 34.4442 28.9433C34.3233 28.4558 34.255 28.5267 29.4058 25.9133L45.9775 18.7083ZM23.3333 22.5H24.1667C26.4667 22.4972 28.3306 20.6334 28.3333 18.3333V15.3167C31.3333 16.7275 32.9075 18.89 34.5233 21.8708L28.7417 24.385C28.1563 24.6393 27.7675 25.2056 27.7405 25.8433C27.7136 26.481 28.0531 27.078 28.615 27.3808L32.4025 29.4208C30.5183 32.0153 27.7955 33.8791 24.695 34.6967C21.1717 35.5158 17.0592 33.8633 14.695 30.6767C12.9301 28.3445 12.2918 25.3491 12.9525 22.5C15.3633 22.5 15.4425 22.4317 15.7558 22.7058C22.4483 28.5617 22.0567 28.3333 22.5 28.3333C22.9602 28.3333 23.3333 27.9602 23.3333 27.5V22.5ZM40.8583 19.1167L36.0567 21.205C34.1042 17.5833 32.13 15.0317 28.3333 13.5V7.70583C33.0258 9.06167 37.1967 12.0717 40.8583 19.1167ZM1.66667 6.66667C1.66667 5.28595 2.78595 4.16667 4.16667 4.16667H24.225C24.8815 4.1708 25.509 4.4374 25.9676 4.90704C26.4263 5.37667 26.678 6.0103 26.6667 6.66667V18.3333C26.6667 19.714 25.5474 20.8333 24.1667 20.8333H23.3333C22.4129 20.8333 21.6667 21.5795 21.6667 22.5V25.6667L16.8533 21.455C16.3982 21.0552 15.8133 20.8343 15.2075 20.8333C3.31333 20.8333 4.04083 20.8458 3.81417 20.8075C2.58239 20.6321 1.66709 19.5775 1.66667 18.3333V6.66667Z" fill="white"/>
<path id="Shape_2" d="M5 17.4942C5 17.9544 5.3731 18.3275 5.83333 18.3275H12.5C12.9602 18.3275 13.3333 17.9544 13.3333 17.4942C13.3333 17.034 12.9602 16.6609 12.5 16.6609H6.89917C7.49417 15.5417 9.08917 14.44 10.1375 13.7192C11.1597 13.134 12.0433 12.3346 12.7275 11.3759C13.4901 10.1782 13.4852 8.64611 12.715 7.45336C10.8025 4.65669 5.09333 5.43086 5 9.99419C5 10.4544 5.3731 10.8275 5.83333 10.8275C6.29357 10.8275 6.66667 10.4544 6.66667 9.99419C6.65068 8.83467 7.45114 7.82331 8.58333 7.57253C9.58492 7.30399 10.6524 7.62169 11.3442 8.39419C11.7447 9.0476 11.7298 9.87404 11.3058 10.5125C10.2375 12.2692 5 14.1125 5 17.4942Z" fill="white"/>
<path id="Shape_3" d="M14.1667 15H19.1667V17.5C19.1667 17.9602 19.5398 18.3333 20 18.3333C20.4603 18.3333 20.8333 17.9602 20.8333 17.5V15H22.5C22.9603 15 23.3334 14.6269 23.3334 14.1666C23.3334 13.7064 22.9603 13.3333 22.5 13.3333H20.8333V6.66665C20.8337 6.31035 20.6074 5.99326 20.2704 5.87765C19.9334 5.76205 19.5601 5.8735 19.3417 6.15498L13.5083 13.655C13.3129 13.9063 13.2776 14.247 13.4176 14.533C13.5576 14.819 13.8483 15.0002 14.1667 15ZM19.1667 9.09581V13.3333H15.87L19.1667 9.09581Z" fill="white"/>
</g>
</g>
<defs>
<clipPath id="clip0_1629_1095">
<rect width="50" height="50" fill="white"/>
</clipPath>
</defs>
</svg>
