<svg xmlns="http://www.w3.org/2000/svg" width="21" height="21" viewBox="0 0 21 21" fill="none">
  <g clip-path="url(#clip0_521_1889)">
    <path d="M10.5 9.11084V4.73584C10.5 4.57008 10.4342 4.41111 10.3169 4.2939C10.1997 4.17669 10.0408 4.11084 9.875 4.11084C9.70924 4.11084 9.55027 4.17669 9.43306 4.2939C9.31585 4.41111 9.25 4.57008 9.25 4.73584V9.11084H4.875C4.70924 9.11084 4.55027 9.17669 4.43306 9.2939C4.31585 9.41111 4.25 9.57008 4.25 9.73584C4.25 9.9016 4.31585 10.0606 4.43306 10.1778C4.55027 10.295 4.70924 10.3608 4.875 10.3608H9.25V14.7358C9.25 14.9016 9.31585 15.0606 9.43306 15.1778C9.55027 15.295 9.70924 15.3608 9.875 15.3608C10.0408 15.3608 10.1997 15.295 10.3169 15.1778C10.4342 15.0606 10.5 14.9016 10.5 14.7358V10.3608H14.875C15.0408 10.3608 15.1997 10.295 15.3169 10.1778C15.4342 10.0606 15.5 9.9016 15.5 9.73584C15.5 9.57008 15.4342 9.41111 15.3169 9.2939C15.1997 9.17669 15.0408 9.11084 14.875 9.11084H10.5ZM9.875 19.1108C7.3886 19.1108 5.00403 18.1231 3.24587 16.365C1.48772 14.6068 0.5 12.2222 0.5 9.73584C0.5 7.24944 1.48772 4.86487 3.24587 3.10671C5.00403 1.34856 7.3886 0.36084 9.875 0.36084C12.3614 0.36084 14.746 1.34856 16.5041 3.10671C18.2623 4.86487 19.25 7.24944 19.25 9.73584C19.25 12.2222 18.2623 14.6068 16.5041 16.365C14.746 18.1231 12.3614 19.1108 9.875 19.1108Z" fill="white"/>
  </g>
  <defs>
    <clipPath id="clip0_521_1889">
      <rect width="20" height="20" fill="white" transform="translate(0.5 0.36084)"/>
    </clipPath>
  </defs>
</svg>