<svg xmlns="http://www.w3.org/2000/svg" width="42" height="42" viewBox="0 0 42 42" fill="none">
  <path d="M19.7388 5.17335C20.1719 3.84039 22.0576 3.84039 22.4908 5.17335L25.3375 13.9348C25.5312 14.5309 26.0867 14.9345 26.7135 14.9345H35.9259C37.3274 14.9345 37.9101 16.728 36.7763 17.5518L29.3233 22.9667C28.8162 23.3351 28.6041 23.9881 28.7977 24.5843L31.6445 33.3457C32.0776 34.6787 30.552 35.7871 29.4181 34.9633L21.9652 29.5484C21.4581 29.18 20.7714 29.18 20.2643 29.5484L12.8114 34.9633C11.6775 35.7871 10.1519 34.6787 10.585 33.3457L13.4318 24.5843C13.6255 23.9881 13.4133 23.3351 12.9062 22.9667L5.45326 17.5518C4.31938 16.728 4.90211 14.9345 6.30367 14.9345H15.516C16.1428 14.9345 16.6983 14.5309 16.892 13.9348L19.7388 5.17335Z" fill="#2A2A28"/>
</svg>