<svg width="45" height="45" viewBox="0 0 45 45" fill="none" xmlns="http://www.w3.org/2000/svg">
<circle cx="22.5" cy="22.5" r="22.5" fill="white"/>
<path d="M29.851 13.3356C29.5281 13.156 29.173 13.0418 28.806 12.9994C28.439 12.9571 28.0672 12.9876 27.712 13.0891C27.3567 13.1906 27.025 13.3611 26.7357 13.5909C26.4464 13.8207 26.2052 14.1052 26.026 14.4283L20.8046 23.8249L17.8163 20.8366C17.5568 20.568 17.2465 20.3537 16.9033 20.2063C16.5602 20.0589 16.1912 19.9813 15.8177 19.9781C15.4443 19.9748 15.0739 20.046 14.7283 20.1874C14.3826 20.3288 14.0686 20.5376 13.8045 20.8017C13.5405 21.0658 13.3316 21.3798 13.1902 21.7255C13.0488 22.0711 12.9776 22.4415 12.9809 22.8149C12.9841 23.1883 13.0617 23.5574 13.2091 23.9005C13.3565 24.2437 13.5708 24.554 13.8394 24.8135L19.4644 30.4385C19.996 30.9714 20.7131 31.2639 21.4528 31.2639L21.8424 31.2358C22.2735 31.1755 22.6847 31.016 23.0436 30.7697C23.4026 30.5235 23.6995 30.1974 23.911 29.8169L30.9422 17.1606C31.1217 16.8378 31.2359 16.4828 31.2782 16.1159C31.3205 15.749 31.2901 15.3773 31.1888 15.0221C31.0875 14.6669 30.9172 14.3352 30.6876 14.0458C30.4581 13.7565 30.1738 13.5151 29.851 13.3356Z" fill="#28282A"/>
</svg>
