<svg xmlns="http://www.w3.org/2000/svg" width="24" height="24" viewBox="0 0 24 24" fill="none">
  <path d="M9.83525 15.5834C9.92758 15.6653 10.0666 15.667 10.161 15.5854C12.2189 13.7998 14.0948 11.9271 16.3331 10.0374C16.5262 9.87431 16.6413 9.64636 16.6573 9.39497C16.7067 8.61369 15.7764 8.10208 15.1442 8.62506C13.2292 10.2066 11.637 11.6411 10.152 13.1238C9.86013 12.8323 9.46972 12.4152 8.98797 11.88C8.61552 11.4664 7.94334 11.3948 7.49118 11.8415C7.09403 12.2335 7.07508 12.8628 7.44768 13.2744C8.34698 14.2669 8.91157 14.7623 9.83525 15.5834Z" fill="#28282A"/>
  <path d="M5.00206 20.0215C8.15601 22.4725 12.9278 22.6653 16.2323 20.4214C19.0716 18.4934 20.7371 14.7863 20.4359 11.3499C20.2562 6.24194 16.9372 3.06167 11.4783 2.81316C9.87269 2.73707 8.31239 3.13423 6.9367 3.9421C4.63868 5.02375 2.7385 6.97838 1.88104 9.37538C0.535672 13.1363 1.84809 17.5706 5.00206 20.0215ZM3.90606 7.97022C5.44867 5.08441 8.20041 3.15549 11.4558 3.30567C16.8549 3.55161 19.9514 6.64407 19.9514 11.7904C19.9514 16.4686 16.1454 20.2747 11.467 20.2747C5.02096 20.2747 1.03352 13.3445 3.90606 7.97022Z" fill="#28282A"/>
  <path d="M18.2997 2.1624C17.9958 2.88704 17.7914 3.64924 17.6921 4.42845C17.6749 4.56362 17.7704 4.68691 17.9056 4.70425C18.0438 4.72101 18.1644 4.6236 18.1814 4.49074C18.2749 3.75583 18.4677 3.03665 18.7543 2.35311C18.8071 2.22758 18.7479 2.0831 18.6223 2.03045C18.4965 1.97715 18.3523 2.03687 18.2997 2.1624Z" fill="#28282A"/>
  <path d="M21.3971 3.78086C21.3138 3.67298 21.159 3.65307 21.0512 3.73687L19.3966 5.01791C19.2889 5.10106 19.2691 5.25613 19.3526 5.36369C19.4363 5.47237 19.5924 5.49049 19.6984 5.40767L21.353 4.12664C21.4607 4.04348 21.4804 3.88841 21.3971 3.78086Z" fill="#28282A"/>
  <path d="M22.6316 6.64857C22.5895 6.51918 22.4508 6.4479 22.3208 6.4906C21.7658 6.67168 21.1903 6.75933 20.6028 6.74553C20.4747 6.75034 20.3541 6.85084 20.3512 6.98729C20.3485 7.12342 20.4567 7.23579 20.5928 7.23868C21.2659 7.24989 21.8862 7.15085 22.4736 6.95935C22.6032 6.9173 22.6738 6.77795 22.6316 6.64857Z" fill="#28282A"/>
</svg>