<svg width="220" height="39" viewBox="0 0 220 39" fill="none" xmlns="http://www.w3.org/2000/svg">
<g clip-path="url(#clip0_521_2075)">
<path d="M37.6129 38.1451H0.532258C0.236559 38.1451 0 37.9086 0 37.6129V0.532258C0 0.236559 0.236559 0 0.532258 0H19.1317C19.4274 0 19.664 0.236559 19.664 0.532258V4.67204C19.664 4.96774 19.4274 5.2043 19.1317 5.2043H5.76613C5.47043 5.2043 5.23387 5.44086 5.23387 5.73656V32.3199C5.23387 32.6156 5.47043 32.8521 5.76613 32.8521H32.3495C32.6451 32.8521 32.8817 32.6156 32.8817 32.3199V19.1317C32.8817 18.836 33.1183 18.5995 33.414 18.5995H37.5538C37.8494 18.5995 38.086 18.836 38.086 19.1317V37.5538C38.086 37.8494 37.8494 38.086 37.5538 38.086L37.6129 38.1451Z" fill="#28282A"/>
<path d="M38.0861 0.561555V14.3707C38.0861 14.6664 37.8495 14.9029 37.5538 14.9029H33.3253C33.0296 14.9029 32.793 14.6664 32.793 14.3707V8.75241L25.4893 16.0562C25.2823 16.2632 24.9275 16.2632 24.7205 16.0562C24.0699 15.4056 22.7097 14.0454 22.0592 13.3949C21.8522 13.1879 21.8522 12.8331 22.0592 12.6261L29.3629 5.32231H23.8334C23.5377 5.32231 23.3011 5.08575 23.3011 4.79005V0.561555C23.3011 0.265856 23.5377 0.0292969 23.8334 0.0292969H37.5538C37.8495 0.0292969 38.0861 0.265856 38.0861 0.561555Z" fill="#28282A"/>
<path d="M18.1576 16.5214L16.5058 18.1732C16.0092 18.6697 16.0092 19.4748 16.5058 19.9714L18.1576 21.6232C18.6541 22.1197 19.4592 22.1197 19.9558 21.6232L21.6076 19.9714C22.1041 19.4748 22.1041 18.6697 21.6076 18.1732L19.9558 16.5214C19.4592 16.0248 18.6541 16.0248 18.1576 16.5214Z" fill="#28282A"/>
</g>
<path d="M194.947 33.2798V3.82422H203.751C206.713 3.82422 209.234 4.26445 211.315 5.14492C213.397 6.02538 215.064 7.19934 216.318 8.66678C217.599 10.1342 218.533 11.7751 219.12 13.5894C219.707 15.4037 220 17.2313 220 19.0723C220 21.2601 219.6 23.2345 218.799 24.9954C218.026 26.7297 216.958 28.2238 215.598 29.4778C214.237 30.7051 212.663 31.6523 210.875 32.3193C209.088 32.9596 207.193 33.2798 205.192 33.2798H194.947ZM200.75 27.6768H204.192C205.659 27.6768 206.993 27.4901 208.194 27.1165C209.394 26.7163 210.422 26.1427 211.275 25.3956C212.156 24.6486 212.823 23.7147 213.276 22.5941C213.757 21.4469 213.997 20.1395 213.997 18.6721C213.997 16.751 213.677 15.1902 213.036 13.9896C212.423 12.7623 211.649 11.8151 210.715 11.1481C209.808 10.4811 208.874 10.0275 207.914 9.78737C206.953 9.52056 206.139 9.38716 205.472 9.38716H200.75V27.6768Z" fill="#28282A"/>
<path d="M168.292 3.82422H188.383V9.42718H174.095V15.7105H186.742V21.3135H174.095V27.6768H188.943V33.2798H168.292V3.82422Z" fill="#28282A"/>
<path d="M145.996 14.3098L145.836 15.7905L146.717 14.6699L156.322 3.82422H163.846L151.679 17.0312L163.886 33.2798H156.522L147.437 20.7131L145.996 22.1539V33.2798H140.113V3.82422H145.996V14.3098Z" fill="#28282A"/>
<path d="M104.232 18.5919C104.232 16.5641 104.619 14.6431 105.392 12.8288C106.166 11.0145 107.233 9.41369 108.594 8.02629C109.981 6.61221 111.582 5.50496 113.397 4.70454C115.211 3.90412 117.159 3.50391 119.24 3.50391C121.294 3.50391 123.228 3.90412 125.043 4.70454C126.857 5.50496 128.458 6.61221 129.845 8.02629C131.259 9.41369 132.353 11.0145 133.127 12.8288C133.927 14.6431 134.328 16.5641 134.328 18.5919C134.328 20.673 133.927 22.6207 133.127 24.435C132.353 26.2493 131.259 27.8501 129.845 29.2375C128.458 30.5982 126.857 31.6654 125.043 32.4392C123.228 33.2129 121.294 33.5998 119.24 33.5998C117.159 33.5998 115.211 33.2129 113.397 32.4392C111.582 31.6654 109.981 30.5982 108.594 29.2375C107.233 27.8501 106.166 26.2493 105.392 24.435C104.619 22.6207 104.232 20.673 104.232 18.5919ZM110.235 18.5919C110.235 19.8992 110.462 21.1265 110.915 22.2738C111.395 23.3944 112.049 24.3949 112.876 25.2754C113.73 26.1292 114.704 26.7962 115.798 27.2765C116.918 27.7567 118.132 27.9968 119.44 27.9968C120.694 27.9968 121.854 27.7567 122.922 27.2765C124.015 26.7962 124.963 26.1292 125.763 25.2754C126.563 24.3949 127.19 23.3944 127.644 22.2738C128.098 21.1265 128.324 19.8992 128.324 18.5919C128.324 17.2578 128.084 16.0172 127.604 14.8699C127.15 13.7226 126.51 12.7221 125.683 11.8683C124.883 10.9879 123.935 10.3075 122.842 9.82725C121.748 9.34699 120.56 9.10686 119.28 9.10686C117.999 9.10686 116.812 9.34699 115.718 9.82725C114.624 10.3075 113.663 10.9879 112.836 11.8683C112.009 12.7221 111.369 13.7226 110.915 14.8699C110.462 16.0172 110.235 17.2578 110.235 18.5919Z" fill="#28282A"/>
<path d="M82.9994 3.82422L91.604 25.0354L88.2422 24.3551L96.0463 3.82422H102.93L89.4829 34.6405L76.0358 3.82422H82.9994Z" fill="#28282A"/>
<path d="M51.9023 3.82422H71.993V9.42718H57.7054V15.7105H70.3521V21.3135H57.7054V27.6768H72.5533V33.2798H51.9023V3.82422Z" fill="#28282A"/>
<defs>
<clipPath id="clip0_521_2075">
<rect width="38.1451" height="38.1451" fill="white"/>
</clipPath>
</defs>
</svg>
