<svg width="30" height="28" viewBox="0 0 30 28" fill="none" xmlns="http://www.w3.org/2000/svg">
<path d="M0.5 4C0.5 2.067 2.067 0.5 4 0.5H26C27.933 0.5 29.5 2.067 29.5 4V24C29.5 25.933 27.933 27.5 26 27.5H4C2.067 27.5 0.5 25.933 0.5 24V4Z" fill="#F4F4F4"/>
<path d="M0.5 4C0.5 2.067 2.067 0.5 4 0.5H26C27.933 0.5 29.5 2.067 29.5 4V24C29.5 25.933 27.933 27.5 26 27.5H4C2.067 27.5 0.5 25.933 0.5 24V4Z" stroke="#171717"/>
<path d="M15 7V21" stroke="#171717" stroke-width="2" stroke-linecap="round" stroke-linejoin="round"/>
<path d="M8 14H22" stroke="#171717" stroke-width="2" stroke-linecap="round" stroke-linejoin="round"/>
</svg>
