<svg width="220" height="40" viewBox="0 0 220 40" fill="none" xmlns="http://www.w3.org/2000/svg">
<g clip-path="url(#clip0_35_18)">
<path d="M37.6129 39.0726H0.532258C0.236559 39.0726 0 38.836 0 38.5403V1.45969C0 1.16399 0.236559 0.927429 0.532258 0.927429H19.1317C19.4274 0.927429 19.664 1.16399 19.664 1.45969V5.59947C19.664 5.89517 19.4274 6.13173 19.1317 6.13173H5.76613C5.47043 6.13173 5.23387 6.36829 5.23387 6.66399V33.2473C5.23387 33.543 5.47043 33.7796 5.76613 33.7796H32.3495C32.6451 33.7796 32.8817 33.543 32.8817 33.2473V20.0591C32.8817 19.7634 33.1183 19.5269 33.414 19.5269H37.5538C37.8494 19.5269 38.086 19.7634 38.086 20.0591V38.4812C38.086 38.7769 37.8494 39.0134 37.5538 39.0134L37.6129 39.0726Z" fill="white"/>
<path d="M38.0861 1.48926V15.2984C38.0861 15.5941 37.8495 15.8307 37.5538 15.8307H33.3253C33.0296 15.8307 32.793 15.5941 32.793 15.2984V9.68012L25.4893 16.9839C25.2823 17.1909 24.9275 17.1909 24.7205 16.9839C24.0699 16.3333 22.7097 14.9731 22.0592 14.3226C21.8522 14.1156 21.8522 13.7608 22.0592 13.5538L29.3629 6.25001H23.8334C23.5377 6.25001 23.3011 6.01345 23.3011 5.71775V1.48926C23.3011 1.19356 23.5377 0.957001 23.8334 0.957001H37.5538C37.8495 0.957001 38.0861 1.19356 38.0861 1.48926Z" fill="white"/>
<path d="M18.1576 17.4491L16.5058 19.1009C16.0092 19.5975 16.0092 20.4025 16.5058 20.8991L18.1576 22.5509C18.6541 23.0475 19.4592 23.0475 19.9558 22.5509L21.6076 20.8991C22.1041 20.4025 22.1041 19.5975 21.6076 19.1009L19.9558 17.4491C19.4592 16.9525 18.6541 16.9525 18.1576 17.4491Z" fill="white"/>
</g>
<path d="M194.947 34.2075V4.75195H203.751C206.713 4.75195 209.234 5.19219 211.315 6.07265C213.397 6.95312 215.064 8.12707 216.318 9.59451C217.599 11.062 218.533 12.7028 219.12 14.5171C219.707 16.3314 220 18.159 220 20C220 22.1878 219.6 24.1622 218.799 25.9231C218.026 27.6574 216.958 29.1515 215.598 30.4055C214.237 31.6328 212.663 32.58 210.875 33.247C209.088 33.8873 207.193 34.2075 205.192 34.2075H194.947ZM200.75 28.6046H204.192C205.659 28.6046 206.993 28.4178 208.194 28.0443C209.394 27.644 210.422 27.0704 211.275 26.3233C212.156 25.5763 212.823 24.6425 213.276 23.5219C213.757 22.3746 213.997 21.0672 213.997 19.5998C213.997 17.6788 213.677 16.118 213.036 14.9173C212.423 13.69 211.649 12.7428 210.715 12.0758C209.808 11.4088 208.874 10.9552 207.914 10.7151C206.953 10.4483 206.139 10.3149 205.472 10.3149H200.75V28.6046Z" fill="white"/>
<path d="M168.292 4.75195H188.383V10.3549H174.095V16.6382H186.742V22.2412H174.095V28.6046H188.943V34.2075H168.292V4.75195Z" fill="white"/>
<path d="M145.996 15.2375L145.836 16.7183L146.717 15.5977L156.322 4.75195H163.846L151.679 17.9589L163.886 34.2075H156.522L147.437 21.6409L145.996 23.0816V34.2075H140.113V4.75195H145.996V15.2375Z" fill="white"/>
<path d="M104.232 19.5197C104.232 17.492 104.619 15.571 105.392 13.7567C106.166 11.9424 107.233 10.3415 108.594 8.95415C109.981 7.54007 111.582 6.43282 113.397 5.6324C115.211 4.83197 117.159 4.43176 119.24 4.43176C121.294 4.43176 123.228 4.83197 125.043 5.6324C126.857 6.43282 128.458 7.54007 129.845 8.95415C131.259 10.3415 132.353 11.9424 133.127 13.7567C133.927 15.571 134.328 17.492 134.328 19.5197C134.328 21.6008 133.927 23.5485 133.127 25.3628C132.353 27.1771 131.259 28.778 129.845 30.1654C128.458 31.5261 126.857 32.5933 125.043 33.367C123.228 34.1408 121.294 34.5277 119.24 34.5277C117.159 34.5277 115.211 34.1408 113.397 33.367C111.582 32.5933 109.981 31.5261 108.594 30.1654C107.233 28.778 106.166 27.1771 105.392 25.3628C104.619 23.5485 104.232 21.6008 104.232 19.5197ZM110.235 19.5197C110.235 20.8271 110.462 22.0544 110.915 23.2017C111.395 24.3223 112.049 25.3228 112.876 26.2033C113.73 27.057 114.704 27.7241 115.798 28.2043C116.918 28.6846 118.132 28.9247 119.44 28.9247C120.694 28.9247 121.854 28.6846 122.922 28.2043C124.015 27.7241 124.963 27.057 125.763 26.2033C126.563 25.3228 127.19 24.3223 127.644 23.2017C128.098 22.0544 128.324 20.8271 128.324 19.5197C128.324 18.1857 128.084 16.945 127.604 15.7978C127.15 14.6505 126.51 13.65 125.683 12.7962C124.883 11.9157 123.935 11.2354 122.842 10.7551C121.748 10.2748 120.56 10.0347 119.28 10.0347C117.999 10.0347 116.812 10.2748 115.718 10.7551C114.624 11.2354 113.663 11.9157 112.836 12.7962C112.009 13.65 111.369 14.6505 110.915 15.7978C110.462 16.945 110.235 18.1857 110.235 19.5197Z" fill="white"/>
<path d="M82.9994 4.75195L91.604 25.9632L88.2422 25.2828L96.0463 4.75195H102.93L89.4829 35.5682L76.0358 4.75195H82.9994Z" fill="white"/>
<path d="M51.9023 4.75195H71.993V10.3549H57.7054V16.6382H70.3521V22.2412H57.7054V28.6046H72.5533V34.2075H51.9023V4.75195Z" fill="white"/>
<defs>
<clipPath id="clip0_35_18">
<rect width="38.1451" height="38.1451" fill="white" transform="translate(0 0.927429)"/>
</clipPath>
</defs>
</svg>
