<svg width="51" height="50" viewBox="0 0 51 50" fill="none" xmlns="http://www.w3.org/2000/svg">
<g id="save-money 1">
<path id="Vector" d="M26.1527 27.2877C26.0602 27.2677 25.9653 27.2641 25.8716 27.2781C24.9325 27.1688 24.2241 26.3743 24.2225 25.4292C24.2225 24.9763 23.8553 24.6091 23.4024 24.6091C22.9495 24.6091 22.5822 24.9763 22.5822 25.4292C22.5846 27.0074 23.6403 28.3898 25.162 28.8075V29.6276C25.162 30.0806 25.5292 30.4478 25.9822 30.4478C26.4351 30.4478 26.8023 30.0806 26.8023 29.6276V28.8571C28.5587 28.4895 29.7525 26.8536 29.5679 25.0688C29.3829 23.2839 27.8791 21.9276 26.0847 21.9272C25.0563 21.9272 24.2225 21.0934 24.2225 20.065C24.2225 19.0366 25.0563 18.2029 26.0847 18.2029C27.1131 18.2029 27.9468 19.0366 27.9468 20.065C27.9468 20.5179 28.314 20.8852 28.767 20.8852C29.2199 20.8852 29.5871 20.5179 29.5871 20.065C29.5847 18.4079 28.4238 16.9787 26.8023 16.6367V15.8902C26.8023 15.4373 26.4351 15.0701 25.9822 15.0701C25.5292 15.0701 25.162 15.4373 25.162 15.8902V16.6867C23.4697 17.1489 22.3804 18.792 22.6135 20.5308C22.8465 22.2696 24.3303 23.5675 26.0847 23.5671C27.0994 23.5671 27.9272 24.3796 27.9456 25.394C27.9644 26.4083 27.1667 27.2509 26.1527 27.2877Z" fill="#28282A"/>
<path id="Vector_2" d="M14.1918 22.8104C14.1918 29.3787 19.5163 34.7033 26.0847 34.7033C32.653 34.7033 37.9776 29.3787 37.9776 22.8104C37.9776 16.242 32.653 10.9175 26.0847 10.9175C19.5195 10.9247 14.1994 16.2452 14.1918 22.8104ZM26.0847 12.5578C31.7472 12.5578 36.3373 17.1479 36.3373 22.8104C36.3373 28.4729 31.7472 33.063 26.0847 33.063C20.4221 33.063 15.8321 28.4729 15.8321 22.8104C15.8385 17.1507 20.425 12.5642 26.0847 12.5578Z" fill="#28282A"/>
<path id="Vector_3" d="M42.0206 36.7252L35.596 39.7607C34.709 38.1108 33.0075 37.0608 31.1349 37.0079L25.2041 36.8449C24.265 36.8181 23.3435 36.5802 22.5086 36.1489L21.9051 35.8362C18.8151 34.2255 15.1321 34.2295 12.0453 35.8466L12.083 34.4794C12.0954 34.0265 11.7386 33.6493 11.2856 33.6368L4.78215 33.4578C4.32923 33.4454 3.95239 33.8022 3.93998 34.2552L3.54713 48.5268C3.53471 48.9797 3.89152 49.3569 4.34445 49.3694L10.8479 49.5484H10.8704C11.3149 49.5484 11.6785 49.1948 11.6905 48.7506L11.7093 48.0679L13.3989 47.1632C14.062 46.8064 14.8373 46.7215 15.5618 46.9265L25.651 49.7582C25.6686 49.7634 25.6862 49.7674 25.7042 49.7714C26.4335 49.924 27.1767 50.0005 27.9216 50.0001C29.4994 50.0009 31.0588 49.6609 32.4929 49.0025C32.5281 48.9865 32.5621 48.9677 32.5946 48.9465L47.223 39.4844C47.5874 39.2485 47.7052 38.77 47.4917 38.3919C46.4057 36.4649 43.9969 35.7309 42.0206 36.7252ZM5.20944 47.7523L5.55704 35.1201L10.4206 35.2539L10.073 47.8864L5.20944 47.7523ZM31.754 47.5376C29.9724 48.3418 27.9825 48.5636 26.0675 48.1724L16.0055 45.3479C14.873 45.028 13.6608 45.1605 12.6248 45.7175L11.7614 46.1801L11.9925 37.7812C14.7284 35.9615 18.2372 35.7745 21.151 37.2926L21.7545 37.6054C22.8093 38.15 23.9726 38.4504 25.1592 38.4848L31.0904 38.6478C32.7564 38.6959 34.1712 39.882 34.5092 41.5143L25.6746 41.2704C25.2217 41.258 24.8449 41.6152 24.832 42.0677C24.8196 42.5207 25.1768 42.8979 25.6294 42.9103L35.379 43.1786H35.4018C35.8459 43.1782 36.2091 42.8246 36.2212 42.3809C36.2312 42.0245 36.2047 41.6677 36.1419 41.3169L42.7314 38.2033C42.7379 38.2005 42.7443 38.1973 42.7507 38.1941C43.6853 37.7211 44.8154 37.8793 45.5843 38.5909L31.754 47.5376Z" fill="#28282A"/>
<path id="Vector_4" d="M26.9048 8.61152V0.820144C26.9048 0.367223 26.5376 0 26.0847 0C25.6317 0 25.2645 0.367223 25.2645 0.820144V8.61152C25.2645 9.06444 25.6317 9.43166 26.0847 9.43166C26.5376 9.43166 26.9048 9.06444 26.9048 8.61152Z" fill="#28282A"/>
<path id="Vector_5" d="M33.0559 8.61162V4.92097C33.0559 4.46805 32.6887 4.10083 32.2357 4.10083C31.7828 4.10083 31.4156 4.46805 31.4156 4.92097V8.61162C31.4156 9.06455 31.7828 9.43177 32.2357 9.43177C32.6887 9.43177 33.0559 9.06455 33.0559 8.61162Z" fill="#28282A"/>
<path id="Vector_6" d="M20.7538 8.61162V4.92097C20.7538 4.46805 20.3865 4.10083 19.9336 4.10083C19.4807 4.10083 19.1135 4.46805 19.1135 4.92097V8.61162C19.1135 9.06455 19.4807 9.43177 19.9336 9.43177C20.3865 9.43177 20.7538 9.06455 20.7538 8.61162Z" fill="#28282A"/>
</g>
</svg>
