<svg width="51" height="50" viewBox="0 0 51 50" fill="none" xmlns="http://www.w3.org/2000/svg">
<g id="self-confidence 1">
<path id="Vector" d="M34.8324 39.5242C33.2281 38.0734 31.3286 37.031 29.2839 36.4543C31.4611 35.1588 32.9239 32.7828 32.9239 30.0706C32.9239 25.9771 29.5936 22.6467 25.5 22.6467C21.4065 22.6467 18.0762 25.9771 18.0762 30.0706C18.0762 32.7828 19.539 35.1588 21.7162 36.4543C19.6714 37.031 17.7718 38.0734 16.1675 39.5242C13.6246 41.8238 12.0241 44.9598 11.6609 48.3543C11.6373 48.5747 11.7084 48.7947 11.8566 48.9596C12.0049 49.1244 12.2161 49.2187 12.4377 49.2187L38.5622 49.2186C38.7839 49.2186 38.9951 49.1244 39.1433 48.9595C39.2915 48.7946 39.3626 48.5746 39.339 48.3541C38.9758 44.9597 37.3752 41.8238 34.8324 39.5242ZM19.6388 30.0706C19.6388 26.8387 22.2682 24.2092 25.5001 24.2092C28.7321 24.2092 31.3615 26.8386 31.3615 30.0706C31.3615 33.3021 28.7329 35.9312 25.5015 35.9319C25.5011 35.9319 25.5006 35.9319 25.5002 35.9319C25.4998 35.9319 25.4993 35.9319 25.4989 35.9319C22.2674 35.9312 19.6388 33.3021 19.6388 30.0706ZM13.3376 47.6562C14.3795 41.8056 19.4618 37.495 25.4988 37.4944H25.5001C25.5001 37.4944 25.501 37.4944 25.5014 37.4944C31.5381 37.495 36.6205 41.8056 37.6625 47.6562L13.3376 47.6562ZM16.9 8.58125L20.83 11.7399L19.5072 16.6054C19.3783 17.0798 19.552 17.573 19.9497 17.862C20.1566 18.0124 20.3974 18.0879 20.6387 18.0879C20.8611 18.0879 21.0842 18.0236 21.2814 17.8944L25.5 15.1329L29.7187 17.8944C30.1299 18.1637 30.6526 18.151 31.0506 17.8619C31.4482 17.5729 31.6219 17.0796 31.4928 16.6054L30.17 11.74L34.1 8.58125C34.4832 8.27324 34.6325 7.77217 34.4806 7.30459C34.3286 6.83701 33.9132 6.51943 33.4223 6.49551L28.3861 6.25L26.5966 1.53633C26.4225 1.07764 25.9922 0.781348 25.5001 0.78125C25.5001 0.78125 25.5001 0.78125 25.5 0.78125C25.008 0.78125 24.5776 1.07764 24.4034 1.53633L22.6139 6.25L17.5777 6.49551C17.0867 6.51943 16.6713 6.83711 16.5193 7.30469C16.3674 7.77227 16.5168 8.27334 16.9 8.58125ZM22.9444 7.79824C23.4104 7.77559 23.8184 7.4792 23.9841 7.04297L25.5 3.0502L27.016 7.04316C27.1816 7.4792 27.5897 7.77559 28.0555 7.79824L32.3215 8.00615L28.9926 10.6817C28.6287 10.9741 28.4729 11.4539 28.5955 11.9038L29.7159 16.0252L26.1424 13.6858C25.9474 13.5582 25.7238 13.4944 25.5002 13.4944C25.2766 13.4944 25.0529 13.5583 24.8577 13.6859L21.2844 16.0252L22.4048 11.9038C22.5271 11.4538 22.3713 10.9741 22.0078 10.6818L18.6788 8.00615L22.9444 7.79824ZM12.9473 20.5337H6.79736C6.36592 20.5337 6.01611 20.1839 6.01611 19.7524C6.01611 19.321 6.36592 18.9712 6.79736 18.9712H12.9474C13.3788 18.9712 13.7286 19.321 13.7286 19.7524C13.7286 20.1839 13.3787 20.5337 12.9473 20.5337ZM8.62637 10.0105C8.84199 9.63682 9.31982 9.50879 9.69355 9.72461L15.0196 12.7996C15.3933 13.0153 15.5214 13.4932 15.3056 13.8668C15.1609 14.1174 14.8982 14.2575 14.6282 14.2575C14.4957 14.2575 14.3614 14.2237 14.2384 14.1527L8.9123 11.0777C8.53867 10.862 8.41055 10.3842 8.62637 10.0105ZM15.0196 26.7055L9.69355 29.7805C9.57051 29.8515 9.43613 29.8853 9.30371 29.8853C9.03359 29.8853 8.77109 29.7451 8.62637 29.4945C8.41055 29.1209 8.53867 28.6431 8.9123 28.4273L14.2384 25.3523C14.6123 25.1365 15.0899 25.2648 15.3056 25.6383C15.5214 26.0119 15.3933 26.4897 15.0196 26.7055ZM42.3735 29.4944C42.2289 29.745 41.9662 29.8852 41.6962 29.8852C41.5637 29.8852 41.4294 29.8514 41.3063 29.7804L35.9804 26.7054C35.6067 26.4896 35.4786 26.0118 35.6944 25.6382C35.9102 25.2646 36.3879 25.1363 36.7616 25.3522L42.0876 28.4272C42.4612 28.643 42.5894 29.1208 42.3735 29.4944ZM44.9839 19.7524C44.9839 20.1839 44.6341 20.5337 44.2026 20.5337H38.0527C37.6213 20.5337 37.2715 20.1839 37.2715 19.7524C37.2715 19.321 37.6213 18.9712 38.0527 18.9712H44.2027C44.6341 18.9712 44.9839 19.321 44.9839 19.7524ZM35.6944 13.8667C35.4786 13.4931 35.6067 13.0152 35.9804 12.7995L41.3063 9.72451C41.6803 9.50869 42.1579 9.63691 42.3735 10.0104C42.5894 10.3841 42.4612 10.8619 42.0876 11.0776L36.7616 14.1526C36.6386 14.2236 36.5042 14.2574 36.3718 14.2574C36.1017 14.2575 35.8392 14.1174 35.6944 13.8667Z" fill="white"/>
</g>
</svg>
