<svg xmlns="http://www.w3.org/2000/svg" width="39" height="40" viewBox="0 0 39 40" fill="none">
  <g clip-path="url(#clip0_33_4)">
    <path d="M37.6129 39.0726H0.532258C0.236559 39.0726 0 38.836 0 38.5403V1.45969C0 1.16399 0.236559 0.927429 0.532258 0.927429H19.1317C19.4274 0.927429 19.664 1.16399 19.664 1.45969V5.59947C19.664 5.89517 19.4274 6.13173 19.1317 6.13173H5.76613C5.47043 6.13173 5.23387 6.36829 5.23387 6.66399V33.2473C5.23387 33.543 5.47043 33.7796 5.76613 33.7796H32.3495C32.6451 33.7796 32.8817 33.543 32.8817 33.2473V20.0591C32.8817 19.7634 33.1183 19.5269 33.414 19.5269H37.5538C37.8494 19.5269 38.086 19.7634 38.086 20.0591V38.4812C38.086 38.7769 37.8494 39.0134 37.5538 39.0134L37.6129 39.0726Z" fill="white"/>
    <path d="M38.0861 1.48926V15.2984C38.0861 15.5941 37.8495 15.8307 37.5538 15.8307H33.3253C33.0296 15.8307 32.793 15.5941 32.793 15.2984V9.68012L25.4893 16.9839C25.2823 17.1909 24.9275 17.1909 24.7205 16.9839C24.0699 16.3333 22.7097 14.9731 22.0592 14.3226C21.8522 14.1156 21.8522 13.7608 22.0592 13.5538L29.3629 6.25001H23.8334C23.5377 6.25001 23.3011 6.01345 23.3011 5.71775V1.48926C23.3011 1.19356 23.5377 0.957001 23.8334 0.957001H37.5538C37.8495 0.957001 38.0861 1.19356 38.0861 1.48926Z" fill="white"/>
    <path d="M18.1576 17.4491L16.5058 19.1009C16.0092 19.5975 16.0092 20.4025 16.5058 20.8991L18.1576 22.5509C18.6541 23.0475 19.4592 23.0475 19.9558 22.5509L21.6076 20.8991C22.1041 20.4025 22.1041 19.5975 21.6076 19.1009L19.9558 17.4491C19.4592 16.9525 18.6541 16.9525 18.1576 17.4491Z" fill="white"/>
  </g>
  <defs>
    <clipPath id="clip0_33_4">
      <rect width="38.1451" height="38.1451" fill="white" transform="translate(0 0.927429)"/>
    </clipPath>
  </defs>
</svg>